<svg width="24" height="25" viewBox="0 0 24 25" fill="none" xmlns="http://www.w3.org/2000/svg">
<path d="M4.84202 20.532L5.22507 19.7802L5.22507 19.7802L4.84202 20.532ZM3.96799 19.658L4.71977 19.2749L4.71977 19.2749L3.96799 19.658ZM20.032 19.658L19.2802 19.2749L19.2802 19.2749L20.032 19.658ZM19.158 20.532L18.7749 19.7802L18.7749 19.7802L19.158 20.532ZM20.032 5.34202L19.2802 5.72507L19.2802 5.72507L20.032 5.34202ZM19.158 4.46799L18.7749 5.21977L18.7749 5.21977L19.158 4.46799ZM3.96799 5.34202L3.2162 4.95896V4.95896L3.96799 5.34202ZM4.84202 4.46799L4.45896 3.7162H4.45896L4.84202 4.46799ZM17.0938 9.25C17.0938 8.78401 16.716 8.40625 16.25 8.40625C15.784 8.40625 15.4062 8.78401 15.4062 9.25H17.0938ZM15.4062 15.75C15.4062 16.216 15.784 16.5938 16.25 16.5938C16.716 16.5938 17.0938 16.216 17.0938 15.75H15.4062ZM20.25 7.45H19.4062V17.55H20.25H21.0938V7.45H20.25ZM17.05 20.75V19.9062H6.95V20.75V21.5937H17.05V20.75ZM3.75 17.55H4.59375V7.45H3.75H2.90625V17.55H3.75ZM6.95 4.25V5.09375H17.05V4.25V3.40625H6.95V4.25ZM6.95 20.75V19.9062C6.37602 19.9062 5.99629 19.9056 5.70511 19.8818C5.42379 19.8588 5.30022 19.8185 5.22507 19.7802L4.84202 20.532L4.45896 21.2838C4.81165 21.4635 5.18201 21.5322 5.5677 21.5637C5.94353 21.5944 6.40387 21.5937 6.95 21.5937V20.75ZM3.75 17.55H2.90625C2.90625 18.0961 2.90559 18.5565 2.9363 18.9323C2.96781 19.318 3.0365 19.6884 3.2162 20.041L3.96799 19.658L4.71977 19.2749C4.68149 19.1998 4.64118 19.0762 4.6182 18.7949C4.59441 18.5037 4.59375 18.124 4.59375 17.55H3.75ZM4.84202 20.532L5.22507 19.7802C5.00751 19.6694 4.83063 19.4925 4.71977 19.2749L3.96799 19.658L3.2162 20.041C3.48884 20.5761 3.92388 21.0112 4.45897 21.2838L4.84202 20.532ZM20.25 17.55H19.4062C19.4062 18.124 19.4056 18.5037 19.3818 18.7949C19.3588 19.0762 19.3185 19.1998 19.2802 19.2749L20.032 19.658L20.7838 20.041C20.9635 19.6884 21.0322 19.318 21.0637 18.9323C21.0944 18.5565 21.0938 18.0961 21.0938 17.55H20.25ZM17.05 20.75V21.5937C17.5961 21.5937 18.0565 21.5944 18.4323 21.5637C18.818 21.5322 19.1884 21.4635 19.541 21.2838L19.158 20.532L18.7749 19.7802C18.6998 19.8185 18.5762 19.8588 18.2949 19.8818C18.0037 19.9056 17.624 19.9062 17.05 19.9062V20.75ZM20.032 19.658L19.2802 19.2749C19.1694 19.4925 18.9925 19.6694 18.7749 19.7802L19.158 20.532L19.541 21.2838C20.0761 21.0112 20.5112 20.5761 20.7838 20.041L20.032 19.658ZM20.25 7.45H21.0938C21.0938 6.90387 21.0944 6.44353 21.0637 6.0677C21.0322 5.68201 20.9635 5.31165 20.7838 4.95896L20.032 5.34202L19.2802 5.72507C19.3185 5.80022 19.3588 5.92379 19.3818 6.20511C19.4056 6.49629 19.4062 6.87602 19.4062 7.45H20.25ZM17.05 4.25V5.09375C17.624 5.09375 18.0037 5.09441 18.2949 5.1182C18.5762 5.14118 18.6998 5.18149 18.7749 5.21977L19.158 4.46799L19.541 3.7162C19.1884 3.5365 18.818 3.46781 18.4323 3.4363C18.0565 3.40559 17.5961 3.40625 17.05 3.40625V4.25ZM20.032 5.34202L20.7838 4.95897C20.5112 4.42388 20.0761 3.98884 19.541 3.7162L19.158 4.46799L18.7749 5.21977C18.9925 5.33063 19.1694 5.50751 19.2802 5.72507L20.032 5.34202ZM3.75 7.45H4.59375C4.59375 6.87602 4.59441 6.49629 4.6182 6.20511C4.64118 5.92379 4.68149 5.80022 4.71977 5.72507L3.96799 5.34202L3.2162 4.95896C3.0365 5.31165 2.96781 5.68201 2.9363 6.0677C2.90559 6.44353 2.90625 6.90387 2.90625 7.45H3.75ZM6.95 4.25V3.40625C6.40387 3.40625 5.94353 3.40559 5.5677 3.4363C5.18201 3.46781 4.81165 3.5365 4.45896 3.7162L4.84202 4.46799L5.22507 5.21977C5.30022 5.18149 5.42379 5.14118 5.70511 5.1182C5.99629 5.09441 6.37602 5.09375 6.95 5.09375V4.25ZM3.96799 5.34202L4.71977 5.72507C4.83063 5.50751 5.00751 5.33063 5.22507 5.21977L4.84202 4.46799L4.45896 3.7162C3.92388 3.98884 3.48884 4.42388 3.2162 4.95896L3.96799 5.34202ZM16.25 9.25H15.4062V15.75H16.25H17.0938V9.25H16.25Z" fill="#206256"/>
<path d="M8 11.7188C8.43147 11.7188 8.78125 12.0685 8.78125 12.5C8.78125 12.9315 8.43147 13.2812 8 13.2812C7.56853 13.2812 7.21875 12.9315 7.21875 12.5C7.21875 12.0685 7.56853 11.7188 8 11.7188ZM12 11.7188C12.4315 11.7188 12.7812 12.0685 12.7812 12.5C12.7812 12.9315 12.4315 13.2812 12 13.2812C11.5685 13.2812 11.2188 12.9315 11.2188 12.5C11.2188 12.0685 11.5685 11.7188 12 11.7188Z" fill="#206256" stroke="#206256" stroke-width="0.5625"/>
</svg>
