<svg width="18" height="18" viewBox="0 0 18 18" fill="none" xmlns="http://www.w3.org/2000/svg">
<path d="M15.4809 4.87009C15.1905 4.71426 14.5813 4.55134 13.7526 5.13217L12.7113 5.86884C12.6334 3.66592 11.6772 2.80176 9.35384 2.80176H5.10384C2.68134 2.80176 1.73926 3.74384 1.73926 6.16634V11.833C1.73926 13.4622 2.62467 15.1976 5.10384 15.1976H9.35384C11.6772 15.1976 12.6334 14.3334 12.7113 12.1305L13.7526 12.8672C14.1918 13.1788 14.5743 13.278 14.8788 13.278C15.1409 13.278 15.3463 13.2001 15.4809 13.1293C15.7713 12.9805 16.2601 12.5768 16.2601 11.5638V6.43551C16.2601 5.42259 15.7713 5.01884 15.4809 4.87009ZM8.29134 8.56051C7.56176 8.56051 6.95968 7.96551 6.95968 7.22884C6.95968 6.49217 7.56176 5.89717 8.29134 5.89717C9.02093 5.89717 9.62301 6.49217 9.62301 7.22884C9.62301 7.96551 9.02093 8.56051 8.29134 8.56051Z" fill="#2889AA"/>
</svg>
